
        <svg xmlns="http://www.w3.org/2000/svg" xmlns:xlink="http://www.w3.org/1999/xlink" version="1.1" width="3142.8571428571427" 
        height="1121.4285714285716" viewBox="0 0 3142.8571428571427 1121.4285714285716">
			<rect fill="#ffffff" width="3142.8571428571427" height="1121.4285714285716"/>
			<g transform="scale(7.142857142857143) translate(10, 10)">
				<defs id="SvgjsDefs4478"></defs><g id="SvgjsG4479" featureKey="rootContainer" transform="matrix(1,0,0,1,0,0)" fill="#000000"><rect xmlns="http://www.w3.org/2000/svg" width="420" height="137" rx="10" ry="10"></rect></g><g id="SvgjsG4480" featureKey="nYIUkx-0" transform="matrix(1.0736371185078981,0,0,1.0736371185078981,28.392765256119482,9.119236385270145)" fill="#c12f2f"><g><polygon fill="#c12f2f" points="9.598,89.006 98.604,89.006 98.604,16.101 58.201,16.101 58.201,24.201 90.503,24.201    90.503,80.905 17.698,80.905 17.698,56.604 9.598,56.604  "></polygon><path fill="#c12f2f" d="M1.497,48.503h8.101v-8.101h8.101v8.101h8.101v-8.101h8.101v8.101H42v-8.101h8.101v8.101h8.101V32.302   h-8.101V16.101H42V8h-8.101v8.101h-8.101V8h-8.101v8.101H9.598v16.201H1.497V48.503z M17.698,32.302v-8.101h8.101v8.101H17.698z    M33.899,32.302v-8.101H42v8.101H33.899z"></path></g></g><g id="SvgjsG4481" featureKey="PXhRQw-0" transform="matrix(2.5838431573336105,0,0,2.5838431573336105,142.64130807909396,35.47616438226059)" fill="#ffffff"><path d="M19.541 13.3594 l-3.1445 6.6797 l-5.0195 0 l-0.15625 -5.459 c-0.86914 1.7871 -1.7773 3.6328 -2.5977 5.459 l-5.0293 0 l-0.097656 -6.6797 l-0.88867 0 l-0.14648 -7.9785 l5.0977 0 l-0.13672 5.7715 c0.88867 -1.9043 1.8164 -3.8574 2.7344 -5.7715 l4.6973 0 l0 5.7715 c0.87891 -1.9043 1.709 -3.8574 2.5684 -5.7715 l5 0 l-3.7695 7.9785 l0.88867 0 z M28.70116875 13.789100000000001 l-1.0547 0 c0.029297 -0.10742 0.048828 -0.22461 0.048828 -0.3418 c0.13672 -1.1035 -0.3125 -1.1719 -1.2109 -0.67383 l-0.23438 1.0156 l1.0449 0 l-1.4355 6.2109 l-4.6387 0 l1.4453 -6.2109 l-1.0547 0 l1.9629 -8.5547 l4.6387 0 l-0.94727 4.1113 c1.4648 -0.67383 3.9453 -0.9375 4.9609 0.56641 c0.49805 0.74219 0.57617 1.8066 0.24414 3.2227 l-0.15625 0.6543 l1.0645 0 l-1.4258 6.2109 l-4.668 0 l1.2207 -5.3125 c0.048828 -0.17578 0.13672 -0.53711 0.19531 -0.89844 z M39.619146875 17.0605 c0.15625 -0.67383 0.2832 -1.3281 0.41016 -2.0117 c-3.1543 0.42969 -1.9434 3.1055 -0.41016 2.0117 z M43.535546875 20 l-4.5605 0 l0.039063 -0.20508 l-0.019531 0 c-2.3242 0.70313 -6.0352 0.18555 -5.2539 -3.1836 c0.32227 -1.3574 1.0156 -2.2949 2.1484 -2.9785 l-1.1035 0 c0.20508 -0.11719 0.46875 -0.24414 0.71289 -0.3418 c1.1914 -0.57617 2.6367 -0.71289 3.9551 -0.81055 c0.53711 -1.2402 -2.2363 -1.2695 -4.3555 0.20508 l-0.75195 0 l0.75195 -3.2715 c2.959 -0.98633 10.205 -1.8262 9.043 3.2715 l-0.22461 0.94727 l1.1035 0 c-0.49805 2.1289 -0.97656 4.248 -1.4844 6.3672 z M47.519528125 13.789100000000001 l-1.0645 0 l0.3125 -1.4453 l-1.1523 0 l0.74219 -3.2422 l1.1816 0 l0.6543 -2.8613 l4.6387 0 l-0.6543 2.8613 l2.9102 0 l-0.74219 3.2422 l-2.9395 0 c-0.087891 0.49805 -0.19531 0.94727 -0.3125 1.4453 l1.0547 0 c-0.19531 0.83984 -0.40039 1.6699 -0.57617 2.5195 c-0.36133 1.6504 0.9375 1.5137 1.4355 0.49805 l1.3574 0 l-0.76172 3.3789 c-1.377 0.11719 -3.6328 0.29297 -5.166 -0.019531 c-1.7773 -0.38086 -1.9141 -2.0703 -1.5527 -3.6719 z M71.542578125 13.6328 l-1.4844 6.3574 l-4.8828 0 l1.2793 -5.4199 c-0.49805 0.75195 -0.99609 1.4941 -1.4551 2.2461 l-3.4473 0 l-0.41992 -2.2656 l-1.2793 5.4395 l-4.6777 0 l1.4453 -6.3574 l-0.87891 0 l1.8848 -8.1836 l5.1855 0 l1.0645 5.2051 c1.1426 -1.7188 2.2852 -3.457 3.457 -5.2051 l5.1855 0 l-1.8848 8.1836 l0.9082 0 z M78.486334375 17.0605 c0.15625 -0.67383 0.2832 -1.3281 0.41016 -2.0117 c-3.1543 0.42969 -1.9434 3.1055 -0.41016 2.0117 z M82.402734375 20 l-4.5605 0 l0.039063 -0.20508 l-0.019531 0 c-2.3242 0.70313 -6.0352 0.18555 -5.2539 -3.1836 c0.32227 -1.3574 1.0156 -2.2949 2.1484 -2.9785 l-1.1035 0 c0.20508 -0.11719 0.46875 -0.24414 0.71289 -0.3418 c1.1914 -0.57617 2.6367 -0.71289 3.9551 -0.81055 c0.53711 -1.2402 -2.2363 -1.2695 -4.3555 0.20508 l-0.75195 0 l0.75195 -3.2715 c2.959 -0.98633 10.205 -1.8262 9.043 3.2715 l-0.22461 0.94727 l1.1035 0 c-0.49805 2.1289 -0.97656 4.248 -1.4844 6.3672 z M85.322315625 13.789100000000001 l-1.0254 0 l0.84961 -3.7793 l4.6582 0 l-0.84961 3.7793 l1.0352 0 l-1.377 6.2109 l-4.6582 0 z M91.005815625 5.234 l-0.81055 3.5352 l-4.8242 0 l0.81055 -3.5352 l4.8242 0 z M92.0312375 13.789100000000001 l-1.0645 0 l1.9824 -8.5547 l4.6191 0 l-1.9629 8.5547 l1.0547 0 l-1.4453 6.2109 l-4.6387 0 z"></path></g>
			</g>
		</svg>
	